<?xml version="1.0" standalone="no"?>
<!DOCTYPE svg PUBLIC "-//W3C//DTD SVG 20010904//EN"
 "http://www.w3.org/TR/2001/REC-SVG-20010904/DTD/svg10.dtd">
<svg version="1.0" xmlns="http://www.w3.org/2000/svg"
 width="400.000000pt" height="400.000000pt" viewBox="0 0 400.000000 400.000000"
 preserveAspectRatio="xMidYMid meet">

<g transform="translate(0.000000,400.000000) scale(0.100000,-0.100000)"
fill="#000000" stroke="none">
<path d="M1599 2912 c-36 -4 -79 -51 -85 -93 -3 -20 0 -49 8 -68 12 -30 11
-40 -9 -100 -30 -88 -31 -203 -2 -297 36 -116 13 -220 -67 -302 -48 -50 -54
-53 -87 -47 -43 8 -72 -6 -92 -45 -34 -66 -6 -130 68 -152 54 -15 51 -12 32
-42 -10 -15 -18 -47 -18 -74 -2 -143 130 -224 363 -224 63 0 133 5 155 10 33
7 47 5 75 -10 39 -20 87 -22 145 -4 27 8 61 9 105 4 142 -17 307 27 373 101
18 20 55 45 81 55 140 54 194 185 150 362 -18 71 -19 67 31 154 23 40 19 94
-10 128 -49 58 -127 51 -189 -18 -46 -51 -61 -108 -49 -182 10 -67 0 -78 -48
-53 -49 26 -96 101 -115 183 -16 72 -16 74 7 145 31 97 32 226 0 313 -17 48
-19 67 -11 88 30 80 -1 144 -83 170 -22 7 -84 -17 -112 -44 -19 -18 -23 -18
-65 -3 -72 25 -249 28 -338 5 -61 -16 -74 -16 -84 -5 -24 30 -85 51 -129 45z
m102 -72 l36 -29 64 21 c90 28 249 28 338 0 l65 -21 33 29 c44 39 76 47 109
26 38 -26 46 -58 28 -112 -14 -41 -14 -49 0 -77 42 -89 46 -229 10 -331 -30
-86 -7 -210 55 -292 46 -61 92 -88 143 -85 28 1 38 -2 38 -14 0 -8 -9 -15 -19
-15 -25 0 -37 -18 -22 -33 9 -9 19 -8 41 5 30 17 30 17 30 -6 0 -12 -11 -33
-24 -45 -73 -68 -256 -8 -326 108 -25 42 -34 48 -45 31 -9 -14 22 -67 64 -109
l39 -39 -42 -12 c-22 -7 -93 -43 -156 -81 -63 -39 -125 -72 -137 -75 -45 -12
-131 17 -233 77 -56 33 -123 68 -148 77 -26 9 -49 18 -51 19 -2 1 15 23 37 47
41 44 61 90 47 104 -4 4 -15 -4 -24 -18 -75 -115 -199 -177 -299 -150 -25 6
-49 21 -58 35 -21 32 -11 47 22 35 14 -6 30 -8 35 -4 16 10 10 24 -16 34 -40
15 -30 31 20 29 51 -3 98 25 141 82 35 47 50 84 64 166 12 65 11 74 -10 129
-34 87 -33 226 1 310 23 54 24 65 13 85 -7 13 -13 41 -14 61 0 28 6 41 27 58
35 27 74 21 124 -20z m1089 -597 c26 -33 22 -64 -15 -118 -30 -45 -32 -85 -9
-182 22 -97 7 -169 -50 -231 -18 -21 -86 -62 -101 -62 -14 0 -3 85 13 104 26
30 65 151 57 179 -4 12 -21 37 -38 54 -26 27 -31 43 -35 92 -5 75 10 122 54
161 46 40 94 41 124 3z m-1135 -447 c28 -13 87 -46 133 -74 46 -28 97 -54 113
-57 l30 -7 -26 -25 c-25 -26 -28 -33 -29 -88 -1 -28 -4 -30 -46 -37 -134 -20
-294 1 -368 49 -55 36 -86 93 -79 146 8 56 35 88 93 108 59 20 110 16 179 -15z
m891 -24 c68 -89 22 -190 -113 -243 -49 -19 -79 -23 -198 -25 -77 -2 -164 -6
-193 -10 -46 -6 -52 -5 -46 10 5 13 -1 16 -29 16 -19 0 -40 7 -47 15 -10 12
-6 15 29 21 52 8 57 34 6 34 -19 0 -35 4 -35 9 0 10 61 41 82 41 21 0 107 43
176 88 140 91 204 108 296 80 33 -10 65 -26 72 -36z m64 13 c-12 -15 -30 -12
-30 5 0 8 31 19 39 13 2 -1 -2 -9 -9 -18z"/>
<path d="M1725 2580 c-25 -28 -7 -70 30 -70 37 0 55 42 30 70 -10 11 -23 20
-30 20 -7 0 -20 -9 -30 -20z"/>
<path d="M2155 2580 c-37 -41 24 -97 63 -58 17 17 15 44 -4 62 -21 21 -37 20
-59 -4z"/>
<path d="M1562 2498 c3 -8 26 -14 62 -16 44 -2 57 0 54 10 -3 8 -26 14 -62 16
-44 2 -57 0 -54 -10z"/>
<path d="M2267 2503 c-18 -17 -2 -24 50 -21 77 4 86 28 11 28 -30 0 -58 -3
-61 -7z"/>
<path d="M1945 2448 c-8 -17 -17 -22 -38 -20 -19 2 -27 -2 -27 -12 0 -21 43
-31 69 -16 16 8 26 8 42 0 26 -15 69 -5 69 16 0 10 -8 14 -27 12 -21 -2 -30 3
-38 20 -5 12 -17 22 -25 22 -8 0 -20 -10 -25 -22z"/>
<path d="M1613 2428 c-36 -12 -45 -38 -13 -38 32 0 92 28 85 40 -7 12 -29 11
-72 -2z"/>
<path d="M2250 2425 c0 -14 56 -35 93 -35 32 0 17 27 -22 38 -51 16 -71 15
-71 -3z"/>
<path d="M1717 1309 c-56 -13 -89 -33 -130 -78 -83 -92 -23 -181 124 -181 49
0 109 17 109 30 0 5 -24 21 -52 37 -40 21 -54 34 -55 53 -3 31 9 47 70 89 53
36 57 46 25 55 -28 7 -43 6 -91 -5z"/>
<path d="M1922 1293 c-43 -21 -69 -74 -78 -155 -5 -51 -3 -66 9 -77 23 -18 34
-8 67 62 35 74 76 105 112 86 34 -18 38 -29 32 -84 -6 -57 5 -80 33 -71 38 12
72 121 59 190 -5 26 -15 40 -36 51 -39 20 -155 19 -198 -2z"/>
<path d="M2270 1268 c-59 -60 -120 -152 -120 -183 0 -36 25 -42 76 -16 52 25
102 27 130 6 10 -8 33 -15 51 -15 38 0 48 21 38 87 -24 162 -89 207 -175 121z
m77 -92 c-6 -14 -57 -24 -57 -11 0 3 10 19 22 36 22 29 23 29 32 10 5 -11 6
-27 3 -35z"/>
</g>
</svg>
